<svg width="927" height="797" viewBox="0 0 927 797" fill="none" xmlns="http://www.w3.org/2000/svg">
<path d="M1007.65 -240.196C952.158 -103.609 873.001 205.55 1000.3 349.501C1127.61 493.451 914.779 886.74 792.451 1065.39" stroke="white" stroke-opacity="0.3"/>
<path d="M994.176 -238.339C938.684 -101.753 859.527 207.407 986.83 351.358C1114.13 495.308 901.305 888.597 778.977 1067.25" stroke="white" stroke-opacity="0.3"/>
<path d="M980.702 -236.482C925.21 -99.8956 846.052 209.264 973.356 353.215C1100.66 497.165 887.83 890.453 765.503 1069.1" stroke="white" stroke-opacity="0.3"/>
<path d="M967.228 -234.625C911.736 -98.0387 832.578 211.121 959.882 355.072C1087.19 499.022 874.356 892.31 752.029 1070.96" stroke="white" stroke-opacity="0.3"/>
<path d="M953.753 -232.768C898.262 -96.1817 819.104 212.978 946.408 356.929C1073.71 500.879 860.882 894.167 738.554 1072.82" stroke="white" stroke-opacity="0.3"/>
<path d="M940.279 -230.911C884.788 -94.3248 805.63 214.835 932.934 358.786C1060.24 502.736 847.408 896.024 725.08 1074.67" stroke="white" stroke-opacity="0.3"/>
<path d="M926.805 -229.054C871.313 -92.4679 792.156 216.692 919.46 360.643C1046.76 504.593 833.934 897.881 711.606 1076.53" stroke="white" stroke-opacity="0.3"/>
<path d="M913.331 -227.197C857.839 -90.6109 778.682 218.549 905.986 362.499C1033.29 506.45 820.46 899.738 698.132 1078.39" stroke="white" stroke-opacity="0.3"/>
<path d="M899.857 -225.34C844.365 -88.754 765.208 220.406 892.511 364.356C1019.82 508.307 806.986 901.595 684.658 1080.25" stroke="white" stroke-opacity="0.3"/>
<path d="M886.383 -223.483C830.891 -86.8971 751.734 222.263 879.037 366.213C1006.34 510.164 793.512 903.452 671.184 1082.1" stroke="white" stroke-opacity="0.3"/>
<path d="M872.909 -221.626C817.417 -85.0401 738.259 224.12 865.563 368.07C992.867 512.021 780.037 905.309 657.71 1083.96" stroke="white" stroke-opacity="0.3"/>
<path d="M859.435 -219.769C803.943 -83.1832 724.785 225.977 852.089 369.927C979.393 513.878 766.563 907.166 644.236 1085.82" stroke="white" stroke-opacity="0.3"/>
<path d="M845.96 -217.912C790.469 -81.3263 711.311 227.834 838.615 371.784C965.919 515.735 753.089 909.023 630.761 1087.67" stroke="white" stroke-opacity="0.3"/>
<path d="M832.486 -216.055C776.995 -79.4693 697.837 229.691 825.141 373.641C952.445 517.592 739.615 910.88 617.287 1089.53" stroke="white" stroke-opacity="0.3"/>
<path d="M819.012 -214.199C763.52 -77.6124 684.363 231.548 811.667 375.498C938.971 519.448 726.141 912.737 603.813 1091.39" stroke="white" stroke-opacity="0.3"/>
<path d="M805.538 -212.342C750.046 -75.7555 670.889 233.404 798.193 377.355C925.496 521.305 712.667 914.594 590.339 1093.24" stroke="white" stroke-opacity="0.3"/>
<path d="M792.064 -210.485C736.572 -73.8985 657.415 235.261 784.719 379.212C912.022 523.162 699.193 916.451 576.865 1095.1" stroke="white" stroke-opacity="0.3"/>
<path d="M778.59 -208.628C723.098 -72.0416 643.941 237.118 771.244 381.069C898.548 525.019 685.719 918.307 563.391 1096.96" stroke="white" stroke-opacity="0.3"/>
<path d="M765.116 -206.771C709.624 -70.1847 630.466 238.975 757.77 382.926C885.074 526.876 672.244 920.164 549.917 1098.81" stroke="white" stroke-opacity="0.3"/>
</svg>
