<svg width="52" height="451" viewBox="0 0 52 451" fill="none" xmlns="http://www.w3.org/2000/svg">
<g id="Group 8">
<g id="Group 7">
<line id="Line 3" x1="27.5" y1="61" x2="27.5" y2="196" stroke="white" stroke-opacity="0.3" stroke-width="3"/>
<line id="Line 5" x1="27.5" y1="259" x2="27.5" y2="393" stroke="white" stroke-opacity="0.3" stroke-width="3"/>
<g id="Group 1">
<g id="home (1) 1">
<g id="Group">
<g id="Group_2">
<path id="Vector" d="M26 15.975L19.1208 21.2683V28.3601H24.6485V23.163H27.585V28.3601H32.8792V21.2683L26 15.975Z" fill="#EF3E07"/>
</g>
</g>
<g id="Group_3">
<g id="Group_4">
<path id="Vector_2" d="M33.1673 17.1536V13.5276H30.2702V14.9249L26 11.6399L16 19.3328L17.3804 21.1271L26 14.4946L34.6196 21.1272L36 19.3328L33.1673 17.1536Z" fill="#EF3E07"/>
</g>
</g>
</g>
<rect id="Rectangle 2" x="7.5" y="1.5" width="37" height="37" rx="6.5" stroke="#EF3E07" stroke-width="3"/>
</g>
<g id="Group 3">
<rect id="Rectangle 2_2" x="7.5" y="197.5" width="37" height="37" rx="6.5" stroke="white" stroke-opacity="0.3" stroke-width="3"/>
<g id="dashicons:portfolio">
<path id="Vector_3" d="M20 211H16.78C16.41 211 16.04 211.32 16.09 211.84L17.65 221.83C17.65 221.83 19.5 214.47 19.86 212.7C19.97 212.17 20.47 212 20.84 212H26C26 212 25.3 209.92 25.23 209.69C25.11 209.25 24.89 209 24.45 209H21.14C20.78 209 20.44 209.23 20.34 209.64C20.25 210.04 20 211 20 211ZM24.88 211H20.88C20.88 211 21.3 210 21.75 210H23.88C24.36 210 24.88 211 24.88 211ZM18.67 222.25C18.36 222.72 17.91 223 17.41 223H33.14C33.68 223 34.06 222.69 34.17 222.17C34.61 219.98 35.85 213.73 35.85 213.73C35.92 213.23 35.55 213 35.23 213H32V211.53C32 211.37 31.74 211 31.34 211H27.58C27.06 211 26.71 211.58 26.71 211.58L26 213H21.59C21.27 213 20.96 213.19 20.9 213.5C20.9 213.5 19.31 220.2 19.18 220.83C19.11 221.2 18.96 221.82 18.67 222.25ZM31.38 213H27C27 213 27.58 212 28.13 212H30.42C31.13 212 31.38 213 31.38 213Z" fill="white" fill-opacity="0.3"/>
</g>
</g>
<g id="Group 5">
<rect id="Rectangle 1" x="7.5" y="394.5" width="37" height="37" rx="6.5" stroke="white" stroke-opacity="0.35" stroke-width="3"/>
<g id="fa-brands:microblog" clip-path="url(#clip0)">
<path id="Vector_4" d="M32.5999 417.15C33.7519 415.795 34.4397 414.089 34.4397 412.236C34.4397 407.824 30.5491 404.25 25.7499 404.25C20.9507 404.25 17.0601 407.824 17.0601 412.236C17.0601 416.648 20.9507 420.221 25.7499 420.221C26.8065 420.223 27.8558 420.046 28.853 419.696C28.9096 419.677 28.971 419.676 29.028 419.694C29.0851 419.712 29.1349 419.748 29.1702 419.796C29.896 420.777 31.03 421.466 32.2909 421.746C32.3357 421.756 32.3824 421.747 32.4206 421.722C32.4588 421.697 32.4855 421.657 32.4948 421.613C32.5 421.588 32.4998 421.563 32.494 421.538C32.4883 421.514 32.4772 421.491 32.4616 421.471C31.9797 420.846 31.7305 420.072 31.7568 419.283C31.7831 418.494 32.0833 417.739 32.6058 417.147L32.5999 417.15ZM29.8718 411.297L27.6335 412.996L28.4452 415.686C28.4606 415.736 28.4598 415.79 28.443 415.84C28.4262 415.89 28.3942 415.934 28.3515 415.965C28.3088 415.996 28.2575 416.013 28.2047 416.013C28.1519 416.014 28.1002 415.998 28.0569 415.968L25.7499 414.364L23.4429 415.969C23.3995 415.999 23.3479 416.015 23.2951 416.014C23.2424 416.014 23.1911 415.997 23.1484 415.966C23.1057 415.935 23.0737 415.891 23.0568 415.841C23.0399 415.791 23.039 415.737 23.0542 415.687L23.8663 412.997L21.628 411.298C21.586 411.266 21.5549 411.222 21.5391 411.172C21.5233 411.121 21.5236 411.067 21.5399 411.017C21.5562 410.967 21.5878 410.923 21.6302 410.892C21.6726 410.86 21.7237 410.843 21.7765 410.842L24.5843 410.783L25.5085 408.13C25.5258 408.08 25.5582 408.037 25.6012 408.006C25.6442 407.976 25.6956 407.959 25.7483 407.959C25.8011 407.959 25.8525 407.976 25.8955 408.006C25.9385 408.037 25.9709 408.08 25.9882 408.13L26.9124 410.783L29.7202 410.842C29.7732 410.842 29.8248 410.859 29.8677 410.89C29.9106 410.922 29.9426 410.965 29.9594 411.016C29.9761 411.066 29.9766 411.12 29.9609 411.171C29.9452 411.222 29.914 411.266 29.8718 411.298V411.297Z" fill="white" fill-opacity="0.3"/>
</g>
</g>
</g>
<path id="Home" d="M19.7335 55H18.6495V52.472H15.9375V55H14.8535V49.216H15.9375V51.704H18.6495V49.216H19.7335V55ZM26.4484 52.108C26.4484 52.532 26.3777 52.9253 26.2364 53.288C26.0951 53.648 25.8964 53.96 25.6404 54.224C25.3844 54.488 25.0764 54.6947 24.7164 54.844C24.3564 54.9907 23.9577 55.064 23.5204 55.064C23.0831 55.064 22.6831 54.9907 22.3204 54.844C21.9604 54.6947 21.6511 54.488 21.3924 54.224C21.1364 53.96 20.9377 53.648 20.7964 53.288C20.6551 52.9253 20.5844 52.532 20.5844 52.108C20.5844 51.684 20.6551 51.292 20.7964 50.932C20.9377 50.5693 21.1364 50.256 21.3924 49.992C21.6511 49.728 21.9604 49.5227 22.3204 49.376C22.6831 49.2267 23.0831 49.152 23.5204 49.152C23.9577 49.152 24.3564 49.2267 24.7164 49.376C25.0764 49.5253 25.3844 49.732 25.6404 49.996C25.8964 50.2573 26.0951 50.5693 26.2364 50.932C26.3777 51.292 26.4484 51.684 26.4484 52.108ZM25.3444 52.108C25.3444 51.7907 25.3017 51.5067 25.2164 51.256C25.1337 51.0027 25.0137 50.788 24.8564 50.612C24.6991 50.436 24.5071 50.3013 24.2804 50.208C24.0564 50.1147 23.8031 50.068 23.5204 50.068C23.2377 50.068 22.9831 50.1147 22.7564 50.208C22.5297 50.3013 22.3364 50.436 22.1764 50.612C22.0191 50.788 21.8977 51.0027 21.8124 51.256C21.7271 51.5067 21.6844 51.7907 21.6844 52.108C21.6844 52.4253 21.7271 52.7107 21.8124 52.964C21.8977 53.2147 22.0191 53.428 22.1764 53.604C22.3364 53.7773 22.5297 53.9107 22.7564 54.004C22.9831 54.0973 23.2377 54.144 23.5204 54.144C23.8031 54.144 24.0564 54.0973 24.2804 54.004C24.5071 53.9107 24.6991 53.7773 24.8564 53.604C25.0137 53.428 25.1337 53.2147 25.2164 52.964C25.3017 52.7107 25.3444 52.4253 25.3444 52.108ZM30.2028 52.6C30.2482 52.6853 30.2895 52.7747 30.3268 52.868C30.3668 52.9587 30.4055 53.0507 30.4428 53.144C30.4802 53.048 30.5188 52.9533 30.5588 52.86C30.5988 52.7667 30.6415 52.6773 30.6868 52.592L32.3988 49.388C32.4202 49.348 32.4415 49.316 32.4628 49.292C32.4868 49.268 32.5122 49.2507 32.5388 49.24C32.5682 49.2293 32.6002 49.2227 32.6348 49.22C32.6695 49.2173 32.7108 49.216 32.7588 49.216H33.5708V55H32.6228V51.264C32.6228 51.1947 32.6242 51.1187 32.6268 51.036C32.6322 50.9533 32.6388 50.8693 32.6468 50.784L30.8988 54.064C30.8588 54.1387 30.8068 54.1973 30.7428 54.24C30.6788 54.28 30.6042 54.3 30.5188 54.3H30.3708C30.2855 54.3 30.2108 54.28 30.1468 54.24C30.0828 54.1973 30.0308 54.1387 29.9908 54.064L28.2188 50.772C28.2295 50.86 28.2362 50.9467 28.2388 51.032C28.2442 51.1147 28.2468 51.192 28.2468 51.264V55H27.2988V49.216H28.1108C28.1588 49.216 28.2002 49.2173 28.2348 49.22C28.2695 49.2227 28.3002 49.2293 28.3268 49.24C28.3562 49.2507 28.3828 49.268 28.4068 49.292C28.4308 49.316 28.4535 49.348 28.4748 49.388L30.2028 52.6ZM38.3843 49.216V50.072H35.8203V51.676H37.8403V52.504H35.8203V54.14H38.3843V55H34.7363V49.216H38.3843Z" fill="#EF3E07"/>
<path id="Resume" d="M11.7233 249.74V252H10.6473V246.216H12.4113C12.806 246.216 13.1433 246.257 13.4233 246.34C13.706 246.42 13.9367 246.533 14.1153 246.68C14.2967 246.827 14.4287 247.003 14.5113 247.208C14.5967 247.411 14.6393 247.635 14.6393 247.88C14.6393 248.075 14.61 248.259 14.5513 248.432C14.4953 248.605 14.4127 248.763 14.3033 248.904C14.1967 249.045 14.0633 249.169 13.9033 249.276C13.746 249.383 13.566 249.468 13.3633 249.532C13.4993 249.609 13.6167 249.72 13.7153 249.864L15.1633 252H14.1953C14.102 252 14.022 251.981 13.9553 251.944C13.8913 251.907 13.8367 251.853 13.7913 251.784L12.5753 249.932C12.53 249.863 12.4793 249.813 12.4233 249.784C12.37 249.755 12.29 249.74 12.1833 249.74H11.7233ZM11.7233 248.968H12.3953C12.598 248.968 12.774 248.943 12.9233 248.892C13.0753 248.841 13.1993 248.772 13.2953 248.684C13.394 248.593 13.4673 248.487 13.5153 248.364C13.5633 248.241 13.5873 248.107 13.5873 247.96C13.5873 247.667 13.49 247.441 13.2953 247.284C13.1033 247.127 12.8087 247.048 12.4113 247.048H11.7233V248.968ZM19.5015 246.216V247.072H16.9375V248.676H18.9575V249.504H16.9375V251.14H19.5015V252H15.8535V246.216H19.5015ZM23.5317 247.268C23.5023 247.327 23.4677 247.368 23.4277 247.392C23.3903 247.416 23.345 247.428 23.2917 247.428C23.2383 247.428 23.1783 247.408 23.1117 247.368C23.045 247.325 22.9663 247.279 22.8757 247.228C22.785 247.177 22.6783 247.132 22.5557 247.092C22.4357 247.049 22.293 247.028 22.1277 247.028C21.9783 247.028 21.8477 247.047 21.7357 247.084C21.6263 247.119 21.533 247.168 21.4557 247.232C21.381 247.296 21.325 247.373 21.2877 247.464C21.2503 247.552 21.2317 247.649 21.2317 247.756C21.2317 247.892 21.269 248.005 21.3437 248.096C21.421 248.187 21.5223 248.264 21.6477 248.328C21.773 248.392 21.9157 248.449 22.0757 248.5C22.2357 248.551 22.3983 248.605 22.5637 248.664C22.7317 248.72 22.8957 248.787 23.0557 248.864C23.2157 248.939 23.3583 249.035 23.4837 249.152C23.609 249.267 23.709 249.408 23.7837 249.576C23.861 249.744 23.8997 249.948 23.8997 250.188C23.8997 250.449 23.8543 250.695 23.7637 250.924C23.6757 251.151 23.545 251.349 23.3717 251.52C23.201 251.688 22.9917 251.821 22.7437 251.92C22.4957 252.016 22.2117 252.064 21.8917 252.064C21.7077 252.064 21.5263 252.045 21.3477 252.008C21.169 251.973 20.997 251.923 20.8317 251.856C20.669 251.789 20.5157 251.709 20.3717 251.616C20.2303 251.523 20.1037 251.419 19.9917 251.304L20.3037 250.788C20.333 250.751 20.3677 250.72 20.4077 250.696C20.4503 250.669 20.497 250.656 20.5477 250.656C20.6143 250.656 20.6863 250.684 20.7637 250.74C20.841 250.793 20.9317 250.853 21.0357 250.92C21.1423 250.987 21.2663 251.048 21.4077 251.104C21.5517 251.157 21.7237 251.184 21.9237 251.184C22.2303 251.184 22.4677 251.112 22.6357 250.968C22.8037 250.821 22.8877 250.612 22.8877 250.34C22.8877 250.188 22.849 250.064 22.7717 249.968C22.697 249.872 22.597 249.792 22.4717 249.728C22.3463 249.661 22.2037 249.605 22.0437 249.56C21.8837 249.515 21.721 249.465 21.5557 249.412C21.3903 249.359 21.2277 249.295 21.0677 249.22C20.9077 249.145 20.765 249.048 20.6397 248.928C20.5143 248.808 20.413 248.659 20.3357 248.48C20.261 248.299 20.2237 248.076 20.2237 247.812C20.2237 247.601 20.265 247.396 20.3477 247.196C20.433 246.996 20.5557 246.819 20.7157 246.664C20.8783 246.509 21.077 246.385 21.3117 246.292C21.5463 246.199 21.8143 246.152 22.1157 246.152C22.457 246.152 22.7717 246.205 23.0597 246.312C23.3477 246.419 23.593 246.568 23.7957 246.76L23.5317 247.268ZM27.0487 251.132C27.2567 251.132 27.4421 251.097 27.6047 251.028C27.7701 250.959 27.9087 250.861 28.0207 250.736C28.1354 250.611 28.2221 250.459 28.2807 250.28C28.3421 250.101 28.3727 249.901 28.3727 249.68V246.216H29.4487V249.68C29.4487 250.024 29.3927 250.343 29.2807 250.636C29.1714 250.927 29.0127 251.179 28.8047 251.392C28.5967 251.603 28.3447 251.768 28.0487 251.888C27.7527 252.005 27.4194 252.064 27.0487 252.064C26.6781 252.064 26.3447 252.005 26.0487 251.888C25.7527 251.768 25.5007 251.603 25.2927 251.392C25.0874 251.179 24.9287 250.927 24.8167 250.636C24.7074 250.343 24.6527 250.024 24.6527 249.68V246.216H25.7287V249.676C25.7287 249.897 25.7581 250.097 25.8167 250.276C25.8781 250.455 25.9647 250.608 26.0767 250.736C26.1887 250.861 26.3261 250.959 26.4887 251.028C26.6541 251.097 26.8407 251.132 27.0487 251.132ZM33.445 249.6C33.4904 249.685 33.5317 249.775 33.569 249.868C33.609 249.959 33.6477 250.051 33.685 250.144C33.7224 250.048 33.761 249.953 33.801 249.86C33.841 249.767 33.8837 249.677 33.929 249.592L35.641 246.388C35.6624 246.348 35.6837 246.316 35.705 246.292C35.729 246.268 35.7544 246.251 35.781 246.24C35.8104 246.229 35.8424 246.223 35.877 246.22C35.9117 246.217 35.953 246.216 36.001 246.216H36.813V252H35.865V248.264C35.865 248.195 35.8664 248.119 35.869 248.036C35.8744 247.953 35.881 247.869 35.889 247.784L34.141 251.064C34.101 251.139 34.049 251.197 33.985 251.24C33.921 251.28 33.8464 251.3 33.761 251.3H33.613C33.5277 251.3 33.453 251.28 33.389 251.24C33.325 251.197 33.273 251.139 33.233 251.064L31.461 247.772C31.4717 247.86 31.4784 247.947 31.481 248.032C31.4864 248.115 31.489 248.192 31.489 248.264V252H30.541V246.216H31.353C31.401 246.216 31.4424 246.217 31.477 246.22C31.5117 246.223 31.5424 246.229 31.569 246.24C31.5984 246.251 31.625 246.268 31.649 246.292C31.673 246.316 31.6957 246.348 31.717 246.388L33.445 249.6ZM41.6265 246.216V247.072H39.0625V248.676H41.0825V249.504H39.0625V251.14H41.6265V252H37.9785V246.216H41.6265Z" fill="white" fill-opacity="0.3"/>
<path id="Contact me" d="M4.98578 445.636C5.04445 445.636 5.09511 445.659 5.13778 445.704L5.56178 446.164C5.32711 446.455 5.03778 446.677 4.69378 446.832C4.35245 446.987 3.94178 447.064 3.46178 447.064C3.03245 447.064 2.64578 446.991 2.30178 446.844C1.96045 446.697 1.66845 446.493 1.42578 446.232C1.18311 445.971 0.996448 445.659 0.865781 445.296C0.737781 444.933 0.673781 444.537 0.673781 444.108C0.673781 443.673 0.745781 443.276 0.889781 442.916C1.03378 442.553 1.23645 442.241 1.49778 441.98C1.75911 441.719 2.07111 441.516 2.43378 441.372C2.79911 441.225 3.20178 441.152 3.64178 441.152C4.07111 441.152 4.44578 441.221 4.76578 441.36C5.08845 441.496 5.36445 441.677 5.59378 441.904L5.23378 442.404C5.21245 442.436 5.18445 442.464 5.14978 442.488C5.11778 442.512 5.07245 442.524 5.01378 442.524C4.95245 442.524 4.88978 442.5 4.82578 442.452C4.76178 442.404 4.68045 442.352 4.58178 442.296C4.48311 442.24 4.35778 442.188 4.20578 442.14C4.05645 442.092 3.86578 442.068 3.63378 442.068C3.36178 442.068 3.11111 442.116 2.88178 442.212C2.65511 442.305 2.45911 442.44 2.29378 442.616C2.13111 442.792 2.00311 443.007 1.90978 443.26C1.81911 443.511 1.77378 443.793 1.77378 444.108C1.77378 444.433 1.81911 444.723 1.90978 444.976C2.00311 445.229 2.12845 445.443 2.28578 445.616C2.44311 445.789 2.62845 445.923 2.84178 446.016C3.05511 446.107 3.28445 446.152 3.52978 446.152C3.67645 446.152 3.80845 446.144 3.92578 446.128C4.04578 446.112 4.15511 446.087 4.25378 446.052C4.35511 446.017 4.44978 445.973 4.53778 445.92C4.62845 445.864 4.71778 445.796 4.80578 445.716C4.83245 445.692 4.86045 445.673 4.88978 445.66C4.91911 445.644 4.95111 445.636 4.98578 445.636ZM11.925 444.108C11.925 444.532 11.8543 444.925 11.713 445.288C11.5716 445.648 11.373 445.96 11.117 446.224C10.861 446.488 10.553 446.695 10.193 446.844C9.83297 446.991 9.4343 447.064 8.99697 447.064C8.55964 447.064 8.15964 446.991 7.79697 446.844C7.43697 446.695 7.12764 446.488 6.86897 446.224C6.61297 445.96 6.4143 445.648 6.27297 445.288C6.13164 444.925 6.06097 444.532 6.06097 444.108C6.06097 443.684 6.13164 443.292 6.27297 442.932C6.4143 442.569 6.61297 442.256 6.86897 441.992C7.12764 441.728 7.43697 441.523 7.79697 441.376C8.15964 441.227 8.55964 441.152 8.99697 441.152C9.4343 441.152 9.83297 441.227 10.193 441.376C10.553 441.525 10.861 441.732 11.117 441.996C11.373 442.257 11.5716 442.569 11.713 442.932C11.8543 443.292 11.925 443.684 11.925 444.108ZM10.821 444.108C10.821 443.791 10.7783 443.507 10.693 443.256C10.6103 443.003 10.4903 442.788 10.333 442.612C10.1756 442.436 9.98364 442.301 9.75697 442.208C9.53297 442.115 9.27964 442.068 8.99697 442.068C8.7143 442.068 8.45964 442.115 8.23297 442.208C8.0063 442.301 7.81297 442.436 7.65297 442.612C7.49564 442.788 7.3743 443.003 7.28897 443.256C7.20364 443.507 7.16097 443.791 7.16097 444.108C7.16097 444.425 7.20364 444.711 7.28897 444.964C7.3743 445.215 7.49564 445.428 7.65297 445.604C7.81297 445.777 8.0063 445.911 8.23297 446.004C8.45964 446.097 8.7143 446.144 8.99697 446.144C9.27964 446.144 9.53297 446.097 9.75697 446.004C9.98364 445.911 10.1756 445.777 10.333 445.604C10.4903 445.428 10.6103 445.215 10.693 444.964C10.7783 444.711 10.821 444.425 10.821 444.108ZM13.3394 441.216C13.3874 441.216 13.4274 441.219 13.4594 441.224C13.4914 441.227 13.5194 441.235 13.5434 441.248C13.5701 441.259 13.5954 441.276 13.6194 441.3C13.6434 441.321 13.6701 441.351 13.6994 441.388L16.7354 445.256C16.7247 445.163 16.7167 445.072 16.7114 444.984C16.7087 444.893 16.7074 444.809 16.7074 444.732V441.216H17.6554V447H17.0994C17.0141 447 16.9434 446.987 16.8874 446.96C16.8314 446.933 16.7767 446.885 16.7234 446.816L13.6994 442.964C13.7074 443.049 13.7127 443.135 13.7154 443.22C13.7207 443.303 13.7234 443.379 13.7234 443.448V447H12.7754V441.216H13.3394ZM22.8983 441.216V442.1H21.1583V447H20.0823V442.1H18.3343V441.216H22.8983ZM28.0782 447H27.2462C27.1528 447 27.0755 446.977 27.0142 446.932C26.9555 446.884 26.9128 446.825 26.8862 446.756L26.4542 445.576H24.0582L23.6262 446.756C23.6048 446.817 23.5622 446.873 23.4982 446.924C23.4368 446.975 23.3608 447 23.2702 447H22.4342L24.7062 441.216H25.8062L28.0782 447ZM24.3342 444.816H26.1782L25.4742 442.892C25.4422 442.807 25.4062 442.707 25.3662 442.592C25.3288 442.475 25.2915 442.348 25.2542 442.212C25.2168 442.348 25.1795 442.475 25.1422 442.592C25.1075 442.709 25.0728 442.812 25.0382 442.9L24.3342 444.816ZM32.4467 445.636C32.5054 445.636 32.5561 445.659 32.5987 445.704L33.0227 446.164C32.7881 446.455 32.4987 446.677 32.1547 446.832C31.8134 446.987 31.4027 447.064 30.9227 447.064C30.4934 447.064 30.1067 446.991 29.7627 446.844C29.4214 446.697 29.1294 446.493 28.8867 446.232C28.6441 445.971 28.4574 445.659 28.3267 445.296C28.1987 444.933 28.1347 444.537 28.1347 444.108C28.1347 443.673 28.2067 443.276 28.3507 442.916C28.4947 442.553 28.6974 442.241 28.9587 441.98C29.2201 441.719 29.5321 441.516 29.8947 441.372C30.2601 441.225 30.6627 441.152 31.1027 441.152C31.5321 441.152 31.9067 441.221 32.2267 441.36C32.5494 441.496 32.8254 441.677 33.0547 441.904L32.6947 442.404C32.6734 442.436 32.6454 442.464 32.6107 442.488C32.5787 442.512 32.5334 442.524 32.4747 442.524C32.4134 442.524 32.3507 442.5 32.2867 442.452C32.2227 442.404 32.1414 442.352 32.0427 442.296C31.9441 442.24 31.8187 442.188 31.6667 442.14C31.5174 442.092 31.3267 442.068 31.0947 442.068C30.8227 442.068 30.5721 442.116 30.3427 442.212C30.1161 442.305 29.9201 442.44 29.7547 442.616C29.5921 442.792 29.4641 443.007 29.3707 443.26C29.2801 443.511 29.2347 443.793 29.2347 444.108C29.2347 444.433 29.2801 444.723 29.3707 444.976C29.4641 445.229 29.5894 445.443 29.7467 445.616C29.9041 445.789 30.0894 445.923 30.3027 446.016C30.5161 446.107 30.7454 446.152 30.9907 446.152C31.1374 446.152 31.2694 446.144 31.3867 446.128C31.5067 446.112 31.6161 446.087 31.7147 446.052C31.8161 446.017 31.9107 445.973 31.9987 445.92C32.0894 445.864 32.1787 445.796 32.2667 445.716C32.2934 445.692 32.3214 445.673 32.3507 445.66C32.3801 445.644 32.4121 445.636 32.4467 445.636ZM37.9139 441.216V442.1H36.1739V447H35.0979V442.1H33.3499V441.216H37.9139ZM43.0466 444.6C43.0919 444.685 43.1333 444.775 43.1706 444.868C43.2106 444.959 43.2493 445.051 43.2866 445.144C43.3239 445.048 43.3626 444.953 43.4026 444.86C43.4426 444.767 43.4853 444.677 43.5306 444.592L45.2426 441.388C45.2639 441.348 45.2853 441.316 45.3066 441.292C45.3306 441.268 45.3559 441.251 45.3826 441.24C45.4119 441.229 45.4439 441.223 45.4786 441.22C45.5133 441.217 45.5546 441.216 45.6026 441.216H46.4146V447H45.4666V443.264C45.4666 443.195 45.4679 443.119 45.4706 443.036C45.4759 442.953 45.4826 442.869 45.4906 442.784L43.7426 446.064C43.7026 446.139 43.6506 446.197 43.5866 446.24C43.5226 446.28 43.4479 446.3 43.3626 446.3H43.2146C43.1293 446.3 43.0546 446.28 42.9906 446.24C42.9266 446.197 42.8746 446.139 42.8346 446.064L41.0626 442.772C41.0733 442.86 41.0799 442.947 41.0826 443.032C41.0879 443.115 41.0906 443.192 41.0906 443.264V447H40.1426V441.216H40.9546C41.0026 441.216 41.0439 441.217 41.0786 441.22C41.1133 441.223 41.1439 441.229 41.1706 441.24C41.1999 441.251 41.2266 441.268 41.2506 441.292C41.2746 441.316 41.2973 441.348 41.3186 441.388L43.0466 444.6ZM51.2281 441.216V442.072H48.6641V443.676H50.6841V444.504H48.6641V446.14H51.2281V447H47.5801V441.216H51.2281Z" fill="white" fill-opacity="0.3"/>
</g>
<defs>
<clipPath id="clip0">
<rect width="17.5" height="20" fill="white" transform="translate(17 403)"/>
</clipPath>
</defs>
</svg>
